# xmcd
#
# Track frame offsets:
#	150
#	19976
#	45386
#	66752
#	84788
#	112414
#	136781
#	155757
#	178603
#	204766
#	226279
#	238567
#
# Disc length: 3445 seconds
#
# Revision: 0
# Processed by: cddbd v1.5.2PL0 Copyright (c) Steve Scherf et al.
# Submitted via: audiograbber 1.83.01
#
DISCID=950d730c
DTITLE=Dave Bartholomew - New Orleans Big Beat
DYEAR=1999
DGENRE=Jazz
TTITLE0=Ode to Billy Joe
TTITLE1=Jazz Fest in New Orleans
TTITLE2=Son of Stagger Lee
TTITLE3=Domino-Bartholomew Medley
TTITLE4=Bad News Blues
TTITLE5=Down At the Zoo
TTITLE6=I Still Get Jealous
TTITLE7=Back Street Woman
TTITLE8=I Dream of You
TTITLE9=Mardi Gras in New Orleans
TTITLE10=The Waltz
TTITLE11=Dave's Song
EXTD=
EXTT0=
EXTT1=
EXTT2=
EXTT3=
EXTT4=
EXTT5=
EXTT6=
EXTT7=
EXTT8=
EXTT9=
EXTT10=
EXTT11=
PLAYORDER=
